<svg height="600" viewBox="0 0 800 600" width="800" xmlns="http://www.w3.org/2000/svg">
<g class="g-chart">
<g class="x-axis" transform="translate(60,550)">
<line shape-rendering="crispEdges" stroke="#bbbbbb" stroke-width="1" x1="0" x2="700" y1="0" y2="0"/>
<g class="tick" transform="translate(93.90244,0)">
<line shape-rendering="crispEdges" stroke="#bbbbbb" stroke-width="1px" x1="0" x2="0" y1="0" y2="6"/>
<text dy=".35em" fill="#777" font-family="sans-serif" font-size="12px" text-anchor="middle" transform="rotate(0,0,16)" x="0" y="16">
Single-Threaded Quick Sort
</text>
</g>
<g class="tick" transform="translate(264.63416,0)">
<line shape-rendering="crispEdges" stroke="#bbbbbb" stroke-width="1px" x1="0" x2="0" y1="0" y2="6"/>
<text dy=".35em" fill="#777" font-family="sans-serif" font-size="12px" text-anchor="middle" transform="rotate(0,0,16)" x="0" y="16">
Multi-Threaded Quick Sort
</text>
</g>
<g class="tick" transform="translate(435.36584,0)">
<line shape-rendering="crispEdges" stroke="#bbbbbb" stroke-width="1px" x1="0" x2="0" y1="0" y2="6"/>
<text dy=".35em" fill="#777" font-family="sans-serif" font-size="12px" text-anchor="middle" transform="rotate(0,0,16)" x="0" y="16">
Single-Threaded Heap Sort
</text>
</g>
<g class="tick" transform="translate(606.0976,0)">
<line shape-rendering="crispEdges" stroke="#bbbbbb" stroke-width="1px" x1="0" x2="0" y1="0" y2="6"/>
<text dy=".35em" fill="#777" font-family="sans-serif" font-size="12px" text-anchor="middle" transform="rotate(0,0,16)" x="0" y="16">
Multi-Threaded Heap Sort
</text>
</g>
<text fill="#777" font-family="sans-serif" font-size="14px" text-anchor="middle" transform="rotate(0)" x="350" y="42">
Sorting Algorithms
</text>
</g>
<g class="y-axis" transform="translate(60,90)">
<line shape-rendering="crispEdges" stroke="#bbbbbb" stroke-width="1" x1="0" x2="0" y1="0" y2="460"/>
<g class="tick" transform="translate(0,460)">
<line shape-rendering="crispEdges" stroke="#bbbbbb" stroke-width="1px" x1="0" x2="-6" y1="0" y2="0"/>
<text dy=".35em" fill="#777" font-family="sans-serif" font-size="12px" text-anchor="end" transform="rotate(0,-12,0)" x="-12" y="0">
0
</text>
</g>
<g class="tick" transform="translate(0,399.07285)">
<line shape-rendering="crispEdges" stroke="#bbbbbb" stroke-width="1px" x1="0" x2="-6" y1="0" y2="0"/>
<text dy=".35em" fill="#777" font-family="sans-serif" font-size="12px" text-anchor="end" transform="rotate(0,-12,0)" x="-12" y="0">
20
</text>
</g>
<g class="tick" transform="translate(0,338.1457)">
<line shape-rendering="crispEdges" stroke="#bbbbbb" stroke-width="1px" x1="0" x2="-6" y1="0" y2="0"/>
<text dy=".35em" fill="#777" font-family="sans-serif" font-size="12px" text-anchor="end" transform="rotate(0,-12,0)" x="-12" y="0">
40
</text>
</g>
<g class="tick" transform="translate(0,277.21854)">
<line shape-rendering="crispEdges" stroke="#bbbbbb" stroke-width="1px" x1="0" x2="-6" y1="0" y2="0"/>
<text dy=".35em" fill="#777" font-family="sans-serif" font-size="12px" text-anchor="end" transform="rotate(0,-12,0)" x="-12" y="0">
60
</text>
</g>
<g class="tick" transform="translate(0,216.2914)">
<line shape-rendering="crispEdges" stroke="#bbbbbb" stroke-width="1px" x1="0" x2="-6" y1="0" y2="0"/>
<text dy=".35em" fill="#777" font-family="sans-serif" font-size="12px" text-anchor="end" transform="rotate(0,-12,0)" x="-12" y="0">
80
</text>
</g>
<g class="tick" transform="translate(0,155.36423)">
<line shape-rendering="crispEdges" stroke="#bbbbbb" stroke-width="1px" x1="0" x2="-6" y1="0" y2="0"/>
<text dy=".35em" fill="#777" font-family="sans-serif" font-size="12px" text-anchor="end" transform="rotate(0,-12,0)" x="-12" y="0">
100
</text>
</g>
<g class="tick" transform="translate(0,94.43707)">
<line shape-rendering="crispEdges" stroke="#bbbbbb" stroke-width="1px" x1="0" x2="-6" y1="0" y2="0"/>
<text dy=".35em" fill="#777" font-family="sans-serif" font-size="12px" text-anchor="end" transform="rotate(0,-12,0)" x="-12" y="0">
120
</text>
</g>
<g class="tick" transform="translate(0,33.50992)">
<line shape-rendering="crispEdges" stroke="#bbbbbb" stroke-width="1px" x1="0" x2="-6" y1="0" y2="0"/>
<text dy=".35em" fill="#777" font-family="sans-serif" font-size="12px" text-anchor="end" transform="rotate(0,-12,0)" x="-12" y="0">
140
</text>
</g>
<text fill="#777" font-family="sans-serif" font-size="14px" text-anchor="middle" transform="rotate(-90)" x="-230" y="-42">
In Milliseconds
</text>
</g>
<g class="g-view" transform="translate(60,90)">
<g>
<g class="bar" transform="translate(187.80489,0)">
<rect fill="#1f77b4" height="51.788086" shape-rendering="crispEdges" width="153.65852" x="0" y="408.2119"/>
<text dy=".35em" fill="#333" font-family="sans-serif" font-size="14px" text-anchor="middle" x="76.82926" y="392.2119">
17
</text>
</g>
<g class="bar" transform="translate(358.5366,0)">
<rect fill="#1f77b4" height="383.84106" shape-rendering="crispEdges" width="153.65852" x="0" y="76.158936"/>
<text dy=".35em" fill="#333" font-family="sans-serif" font-size="14px" text-anchor="middle" x="76.82926" y="60.158936">
126
</text>
</g>
<g class="bar" transform="translate(529.2683,0)">
<rect fill="#1f77b4" height="67.01987" shape-rendering="crispEdges" width="153.65852" x="0" y="392.98013"/>
<text dy=".35em" fill="#333" font-family="sans-serif" font-size="14px" text-anchor="middle" x="76.82926" y="376.98013">
22
</text>
</g>
<g class="bar" transform="translate(17.073181,0)">
<rect fill="#1f77b4" height="283.31125" shape-rendering="crispEdges" width="153.65852" x="0" y="176.68875"/>
<text dy=".35em" fill="#333" font-family="sans-serif" font-size="14px" text-anchor="middle" x="76.82926" y="160.68875">
93
</text>
</g>
</g>
</g>
</g>
</svg>